<svg width="32" height="44" viewBox="0 0 32 44" fill="none" xmlns="http://www.w3.org/2000/svg">
<path d="M7.99951 10.0001V6.00012C7.99951 4.93926 8.42094 3.92184 9.17108 3.17169C9.92123 2.42155 10.9386 2.00012 11.9995 2.00012H19.9995C21.0604 2.00012 22.0778 2.42155 22.8279 3.17169C23.5781 3.92184 23.9995 4.93926 23.9995 6.00012V10.0001M29.9995 10.0001V38.0001C29.9995 39.061 29.5781 40.0784 28.8279 40.8285C28.0778 41.5787 27.0604 42.0001 25.9995 42.0001H5.99951C4.93865 42.0001 3.92123 41.5787 3.17108 40.8285C2.42094 40.0784 1.99951 39.061 1.99951 38.0001V10.0001H29.9995Z" stroke="#E73F5D" stroke-width="4" stroke-linecap="round" stroke-linejoin="round"/>
</svg>
